<?xml version="1.0" encoding="UTF-8"?>
<svg width="45px" height="38px" viewBox="0 0 45 38" version="1.1" xmlns="http://www.w3.org/2000/svg" xmlns:xlink="http://www.w3.org/1999/xlink">
    <title>Group 10 Copy@1,5x</title>
    <defs>
        <filter id="filter-1">
            <feColorMatrix in="SourceGraphic" type="matrix" values="0 0 0 0 1.000000 0 0 0 0 1.000000 0 0 0 0 1.000000 0 0 0 1.000000 0"></feColorMatrix>
        </filter>
        <polygon id="path-2" points="0.000149187634 0.102 37.0007689 0.102 37.0007689 32.3858 0.000149187634 32.3858"></polygon>
    </defs>
    <g id="Page-1" stroke="none" stroke-width="1" fill="none" fill-rule="evenodd">
        <g id="Group-10-Copy" transform="translate(-602.000000, -612.000000)" filter="url(#filter-1)">
            <g transform="translate(602.000000, 612.000000)">
                <path d="M33.1377,31.4044 C34.5207,31.8924 35.9867,31.4964 37.6167,29.7944 C38.6207,28.7454 39.1737,27.0974 39.4887,24.1864 C39.5597,23.7104 39.3027,23.2724 38.8027,23.6284 C37.9007,24.3484 36.8007,24.7964 35.6657,25.0894 C32.9507,25.7904 30.3997,27.0134 31.7497,30.3434" id="Stroke-1" stroke="#333333" stroke-width="1.08" stroke-linecap="round"></path>
                <path d="M33.7666,28.6818 C32.3376,29.7238 31.3286,30.9998 30.7376,32.5098" id="Stroke-3" stroke="#333333" stroke-width="1.08" stroke-linecap="round"></path>
                <path d="M35,19.0983 C39.971,19.0983 44,23.1283 44,28.0983 C44,33.0683 39.971,37.0983 35,37.0983 C30.029,37.0983 26,33.0683 26,28.0983 C26,23.1283 30.029,19.0983 35,19.0983 Z" id="Stroke-5" stroke="#333333" stroke-width="1.6"></path>
                <g id="Group-9" transform="translate(0.000000, 0.898400)">
                    <mask id="mask-3" fill="white">
                        <use xlink:href="#path-2"></use>
                    </mask>
                    <g id="Clip-8"></g>
                    <path d="M17.6836,0.2248 C17.9376,0.0638 18.2596,0.0598 18.5166,0.2168 L36.6216,11.2378 C36.9946,11.4638 37.1126,11.9478 36.8846,12.3198 C36.7376,12.5628 36.4776,12.6978 36.2116,12.6978 C36.0736,12.6978 35.9316,12.6608 35.8036,12.5828 L18.1166,1.8168 L1.2096,12.5748 C0.8436,12.8078 0.3566,12.6988 0.1226,12.3328 C-0.1094,11.9658 -0.0024,11.4798 0.3646,11.2458 L17.6836,0.2248 Z M16.3536,4.9918 C17.3286,4.3818 18.8706,4.3618 19.8616,4.9438 L30.5316,11.2208 C31.5266,11.8068 32.2766,12.9498 32.2766,13.8788 L32.2766,15.0668 C32.2766,15.5018 31.9246,15.8538 31.4896,15.8538 C31.0546,15.8538 30.7026,15.5018 30.7026,15.0668 L30.7026,13.8788 C30.7026,13.5878 30.3156,12.9208 29.7336,12.5778 L19.0646,6.3018 C18.5696,6.0108 17.6746,6.0228 17.1886,6.3278 L7.2636,12.5308 C6.7576,12.8468 6.2976,13.6758 6.2976,14.2718 L6.2976,30.0168 C6.2976,30.4478 6.6586,30.8118 7.0846,30.8118 L7.8716,30.8118 C8.2986,30.8118 8.6596,30.4478 8.6596,30.0168 L8.6596,20.5698 C8.6596,19.2718 9.7196,18.2158 11.0206,18.2158 L14.1696,18.2158 C15.4736,18.2158 16.5316,19.2718 16.5316,20.5698 L16.5316,30.0168 C16.5316,30.4478 16.8926,30.8118 17.3186,30.8118 L22.9626,30.8118 C23.4506,30.8118 24.0166,30.9398 24.0166,31.5698 C24.0166,32.2008 23.4506,32.3858 22.9226,32.3858 L17.3186,32.3858 C15.7446,32.3858 14.9576,31.5968 14.9576,30.0168 L14.9576,20.5698 C14.9576,20.1398 14.6046,19.7898 14.1696,19.7898 L11.0206,19.7898 C10.5876,19.7898 10.2336,20.1398 10.2336,20.5698 L10.2336,30.0168 C10.2336,31.5968 9.4466,32.3858 7.8716,32.3858 L7.0846,32.3858 C5.7826,32.3858 4.7236,31.3238 4.7236,30.0168 L4.7236,14.2718 C4.7236,13.1248 5.4556,11.8028 6.4286,11.1958 L16.3536,4.9918 Z" id="Fill-7" fill="#333333" mask="url(#mask-3)"></path>
                </g>
            </g>
        </g>
    </g>
</svg>